<svg xmlns="http://www.w3.org/2000/svg" viewBox="0 0 44 44" fill="currentColor">
  <path
    d="M25.7996 33.7873C22.2996 32.4873 18.6996 32.2873 15.3996 33.1873C13.0996 33.7873 10.8996 34.9873 8.89963 36.4873L7.4996 37.6873L7.09961 38.0873L7.9996 38.8873C8.0996 38.8873 8.09962 38.9873 8.19962 39.0873C8.39962 39.2873 8.59963 39.3873 8.89963 39.5873L9.4996 39.9873L10.0996 39.4873C10.1996 39.3873 10.3996 39.1873 10.5996 39.0873C12.3996 37.5873 14.3996 36.5873 16.4996 36.0873C19.1996 35.3873 22.0996 35.4873 24.9996 36.5873C27.3996 37.4873 32.2996 38.5873 38.1996 36.0873L38.3996 35.9873L38.6996 35.6873C38.6996 35.5873 38.7996 35.5873 38.8996 35.4873C39.3996 34.8873 39.8996 34.2873 40.2996 33.5873L42.2996 30.4873L39.0996 32.2873C34.3996 34.8873 30.0996 35.3873 25.7996 33.7873Z" />
  <path
    d="M12.1 22.9876C14.8 22.2876 17.7 22.3876 20.6 23.4876C23.8 24.6876 32 26.3876 41.2 18.0876L42.7 16.5876L42.8 16.4876L43.2 16.0876L43 15.5876C42.9 15.1876 42.7 14.6876 42.5 14.1876L42 12.7876L41 13.7876C40.9 13.9876 40.7 14.0876 40.5 14.2876C36.1 18.7876 29.3 23.3876 21.5 20.5876C18 19.2876 14.4 19.0876 11.1 19.9876C7.90001 20.8876 5.1 22.5876 2.5 24.9876V24.8876L1 26.4876C1 26.5876 0.900018 26.5876 0.800018 26.6876L0.5 26.9876L0.600006 27.3876C0.700006 27.8876 0.9 28.3876 1 28.8876L1.60001 30.4876L2.60001 29.1876C2.70001 28.9876 2.9 28.8876 3 28.6876C5.1 26.7876 8.00001 24.0876 12.1 22.9876Z" />
  <path
    d="M2.40002 21.1876C4.70002 18.7876 7.30001 17.2876 10.1 16.4876C12.8 15.7876 15.7 15.8876 18.6 16.9876C27.6 20.2876 35.4 14.8876 38.8 11.9876L40.1 10.6876L40.6 10.2876L40.2 9.68762C39.9 9.38762 39.7 8.98762 39.4 8.58762L38.8 7.7876L38.1 8.48761C38 8.58761 37.8 8.7876 37.7 8.8876C33.5 12.8876 27 16.9876 19.6 14.1876C16.1 12.8876 12.5 12.6876 9.20001 13.5876C7.10001 14.1876 5.10001 15.1876 3.10001 16.4876L1 18.1876C0.8 18.3876 0.7 18.4876 0.5 18.6876L0.300018 18.8876V19.1876C0.200018 19.8876 0.200006 20.5876 0.100006 21.1876L0 23.6876L1.70001 21.8876C1.90001 21.6876 2.10002 21.3876 2.40002 21.1876Z" />
  <path
    d="M28.7004 40.587L28.5004 41.187L28.7004 40.587C28.4004 40.487 28.2004 40.387 27.9004 40.287C24.4004 38.987 20.8004 38.787 17.5004 39.687C16.8004 39.887 16.1004 40.087 15.4004 40.387L13.0004 41.487L12.4004 41.787L14.4004 42.487C15.0004 42.687 15.6004 42.887 16.2004 43.087L16.5004 43.187L16.8004 43.087C17.1004 42.987 17.4004 42.787 17.7004 42.787C17.9004 42.787 18.1004 42.687 18.3004 42.587C20.7004 41.987 23.3004 41.987 26.1004 42.887C26.4004 42.987 26.6004 43.087 26.9004 43.187L27.4004 43.387L27.7004 43.287C28.4004 43.087 29.2004 42.887 29.8004 42.587L32.6004 41.587L29.7004 40.887C29.4004 40.787 29.0004 40.687 28.7004 40.587Z" />
  <path
    d="M43.9998 19.8877L42.4998 21.3877C42.2998 21.5877 42.0998 21.7877 41.8998 21.9877C37.7998 25.8877 31.1998 30.0877 23.7998 27.2877C20.2998 25.9877 16.6998 25.7877 13.3998 26.6877C10.2998 27.5877 7.49979 29.1877 4.99979 31.5877L3.6998 32.9877L3.2998 33.4877L3.6998 34.0877C3.9998 34.4877 4.19981 34.7877 4.39981 35.1877L4.99979 36.0877L5.6998 35.1877C5.7998 35.0877 5.99979 34.8877 6.09979 34.7877C8.49979 32.1877 11.0998 30.5877 14.0998 29.7877C16.7998 29.0877 19.6998 29.1877 22.5998 30.2877C25.0998 31.1877 27.6998 31.4877 30.2998 31.1877C34.8998 30.6877 39.4998 28.0877 42.8998 25.1877C43.0998 24.9877 43.2998 24.8877 43.4998 24.6877L43.7998 24.3877V24.0877C43.7998 23.4877 43.8998 22.7877 43.8998 22.1877L43.9998 19.8877Z" />
  <path
    d="M6.00018 10.6879L5.7002 10.0879L6.00018 10.6879C6.60018 10.3879 7.30021 10.1879 7.90021 9.98788C10.6002 9.28788 13.5002 9.38788 16.4002 10.4879C18.3002 11.1879 20.2002 11.4879 22.3002 11.4879C26.5002 11.4879 30.7002 9.98789 34.6002 7.08789L36.1002 5.88788L36.6002 5.48788L35.7002 4.78787C35.4002 4.48787 35.0002 4.18788 34.6002 3.98788L34.0002 3.58789L33.5002 3.98788C33.3002 4.08788 33.2002 4.28788 33.0002 4.38788C27.7002 8.38788 22.4002 9.48789 17.4002 7.58789C13.8002 6.28789 10.2002 5.98789 6.60019 7.08789C6.30019 7.18789 6.00019 7.28788 5.60019 7.38788L5.40021 7.48788L5.10019 7.78787C5.10019 7.88787 5.00021 7.88788 4.90021 7.98788C4.50021 8.58788 4.00019 9.0879 3.60019 9.6879L1.7002 12.5879L4.8002 10.9879C5.3002 10.9879 5.70018 10.7879 6.00018 10.6879Z" />
  <path
    d="M14.2 3.88748L14.5 3.98749C15.8 4.48749 17.8 4.98749 20.3 4.98749C22.9 4.98749 25.4 4.38748 27.9 3.38748L31 1.88748L28.9 1.1875C28.3 0.9875 27.7 0.7875 27 0.6875H26.7L26.4 0.787476C26.1 0.887476 25.8 1.0875 25.5 1.1875C22.5 2.2875 19.5 2.4875 16.6 1.6875C16.3 1.5875 16 1.48748 15.7 1.38748L15.4 1.28748L15.1 1.38748C14.5 1.58748 13.9 1.78749 13.3 2.08749L11 3.08749L13.4 3.78748C13.6 3.68748 13.9 3.78748 14.2 3.88748Z" />
</svg>