<svg xmlns="http://www.w3.org/2000/svg" width="123" height="23" viewBox="0 0 123 23" fill="none">
  <path
    d="M5.27965 21.9093H0.666016L7.69585 1.54568H13.2441L20.264 21.9093H15.6504L10.5495 6.19909H10.3904L5.27965 21.9093ZM4.9913 13.9051H15.889V17.2658H4.9913V13.9051Z"
    fill="var(--logo-text)" />
  <path d="M26.8713 1.54568V21.9093H22.6355V1.54568H26.8713Z" fill="var(--logo-text)" />
  <path
    d="M38.388 6.63659V9.8184H29.1905V6.63659H38.388ZM31.2786 2.9775H35.5144V17.2161C35.5144 17.6072 35.574 17.9122 35.6934 18.1309C35.8127 18.343 35.9784 18.4922 36.1905 18.5784C36.4093 18.6645 36.6612 18.7076 36.9462 18.7076C37.1451 18.7076 37.3439 18.691 37.5428 18.6579C37.7417 18.6181 37.8941 18.5883 38.0002 18.5684L38.6664 21.7204C38.4543 21.7867 38.156 21.8629 37.7715 21.9491C37.387 22.0419 36.9197 22.0982 36.3695 22.1181C35.3487 22.1579 34.4538 22.022 33.6848 21.7104C32.9225 21.3989 32.3292 20.915 31.905 20.2587C31.4808 19.6025 31.272 18.7739 31.2786 17.7729V2.9775Z"
    fill="var(--logo-text)" />
  <path d="M46.7278 20.8056V6.72607H50.2875V20.8056H46.7278ZM41.4679 15.5457V11.986H55.5474V15.5457H41.4679Z"
    fill="var(--logo-text)" />
  <path
    d="M70.84 7.40221C70.7605 6.60013 70.4191 5.97702 69.8159 5.53289C69.2127 5.08876 68.394 4.8667 67.3599 4.8667C66.6573 4.8667 66.064 4.96613 65.5801 5.165C65.0962 5.35723 64.725 5.6257 64.4664 5.97039C64.2146 6.31509 64.0886 6.70619 64.0886 7.14369C64.0753 7.50827 64.1516 7.82645 64.3173 8.09823C64.4896 8.37001 64.725 8.60534 65.0233 8.8042C65.3216 8.99644 65.6663 9.16547 66.0574 9.3113C66.4484 9.45051 66.8661 9.56983 67.3102 9.66926L69.1397 10.1068C70.028 10.3056 70.8433 10.5708 71.5858 10.9022C72.3282 11.2337 72.9712 11.6413 73.5147 12.1252C74.0583 12.6091 74.4792 13.1792 74.7775 13.8355C75.0825 14.4917 75.2382 15.2441 75.2449 16.0926C75.2382 17.3388 74.92 18.4193 74.2903 19.334C73.6672 20.2422 72.7657 20.9481 71.5858 21.4519C70.4125 21.9491 68.9972 22.1977 67.34 22.1977C65.6961 22.1977 64.2643 21.9458 63.0446 21.442C61.8315 20.9382 60.8836 20.1925 60.2008 19.2048C59.5247 18.2105 59.17 16.9808 59.1369 15.5158H63.3031C63.3495 16.1986 63.545 16.7687 63.8897 17.2261C64.2411 17.6768 64.7084 18.0182 65.2917 18.2502C65.8817 18.4756 66.5479 18.5883 67.2903 18.5883C68.0195 18.5883 68.6525 18.4822 69.1895 18.2701C69.733 18.058 70.1539 17.763 70.4522 17.3852C70.7505 17.0073 70.8997 16.5731 70.8997 16.0826C70.8997 15.6252 70.7638 15.2408 70.492 14.9292C70.2269 14.6176 69.8358 14.3525 69.3187 14.1337C68.8083 13.915 68.1819 13.7161 67.4395 13.5372L65.2221 12.9803C63.5053 12.5627 62.1497 11.9098 61.1554 11.0215C60.161 10.1333 59.6672 8.93678 59.6738 7.43204C59.6672 6.19909 59.9953 5.12191 60.6582 4.20051C61.3277 3.27911 62.2458 2.55988 63.4125 2.04284C64.5791 1.52579 65.9049 1.26727 67.3897 1.26727C68.9011 1.26727 70.2202 1.52579 71.3471 2.04284C72.4806 2.55988 73.3623 3.27911 73.992 4.20051C74.6217 5.12191 74.9466 6.18914 74.9664 7.40221H70.84Z"
    fill="var(--logo-text)" />
  <path
    d="M82.2971 13.0798V21.9093H78.0613V1.54568H82.1777V9.33119H82.3567C82.7014 8.42967 83.2582 7.72371 84.0272 7.21329C84.7961 6.69625 85.7606 6.43772 86.9206 6.43772C87.9812 6.43772 88.906 6.66973 89.6948 7.13375C90.4902 7.59113 91.1067 8.2507 91.5442 9.11244C91.9883 9.96755 92.2071 10.9917 92.2005 12.1849V21.9093H87.9647V12.9406C87.9713 11.9993 87.7327 11.2668 87.2488 10.7431C86.7715 10.2194 86.102 9.95761 85.2402 9.95761C84.6635 9.95761 84.1531 10.0802 83.709 10.3255C83.2715 10.5708 82.9268 10.9287 82.6749 11.3994C82.4296 11.8634 82.3037 12.4235 82.2971 13.0798Z"
    fill="var(--logo-text)" />
  <path
    d="M95.5339 21.9093V6.63659H99.7697V21.9093H95.5339ZM97.6618 4.66784C97.032 4.66784 96.4918 4.45903 96.041 4.04142C95.5969 3.61717 95.3748 3.11007 95.3748 2.52011C95.3748 1.93677 95.5969 1.4363 96.041 1.01869C96.4918 0.594446 97.032 0.382324 97.6618 0.382324C98.2915 0.382324 98.8284 0.594446 99.2726 1.01869C99.7233 1.4363 99.9487 1.93677 99.9487 2.52011C99.9487 3.11007 99.7233 3.61717 99.2726 4.04142C98.8284 4.45903 98.2915 4.66784 97.6618 4.66784Z"
    fill="var(--logo-text)" />
  <path
    d="M112.89 6.63659V9.8184H101.95V6.63659H112.89ZM104.107 21.9093V5.53289C104.107 4.42589 104.323 3.5078 104.754 2.77863C105.191 2.04946 105.788 1.50259 106.544 1.13801C107.299 0.773423 108.158 0.591131 109.119 0.591131C109.768 0.591131 110.362 0.640848 110.899 0.74028C111.442 0.839712 111.847 0.9292 112.112 1.00875L111.356 4.19056C111.19 4.13753 110.985 4.08782 110.74 4.04142C110.501 3.99501 110.256 3.97181 110.004 3.97181C109.381 3.97181 108.946 4.11765 108.701 4.40931C108.456 4.69435 108.333 5.09539 108.333 5.61244V21.9093H104.107Z"
    fill="var(--logo-text)" />
  <path
    d="M122.087 6.63659V9.8184H112.89V6.63659H122.087ZM114.978 2.9775H119.214V17.2161C119.214 17.6072 119.273 17.9122 119.393 18.1309C119.512 18.343 119.678 18.4922 119.89 18.5784C120.108 18.6645 120.36 18.7076 120.645 18.7076C120.844 18.7076 121.043 18.691 121.242 18.6579C121.441 18.6181 121.593 18.5883 121.699 18.5684L122.366 21.7204C122.153 21.7867 121.855 21.8629 121.471 21.9491C121.086 22.0419 120.619 22.0982 120.069 22.1181C119.048 22.1579 118.153 22.022 117.384 21.7104C116.622 21.3989 116.028 20.915 115.604 20.2587C115.18 19.6025 114.971 18.7739 114.978 17.7729V2.9775Z"
    fill="var(--logo-text)" />
</svg>